<?xml version="1.0" encoding="UTF-8"?>
<svg width="40px" height="40px" viewBox="0 0 40 40" version="1.1" xmlns="http://www.w3.org/2000/svg" xmlns:xlink="http://www.w3.org/1999/xlink">
    <!-- Generator: Sketch 58 (84663) - https://sketch.com -->
    <title>Artboard</title>
    <desc>Created with Sketch.</desc>
    <g id="Artboard" stroke="none" stroke-width="1" fill="none" fill-rule="evenodd">
        <rect fill="#FFFFFF" x="0" y="0" width="40" height="40"></rect>
        <g id="JGB-Logo" transform="translate(7.000000, 7.000000)" fill-rule="nonzero">
            <g id="Group" transform="translate(0.500000, 1.000000)" fill="#D73C21">
                <path d="M7.66,3.17 L2.74,19.28" id="Path"></path>
                <path d="M5.25,2.51 C3.61,7.88 1.97,13.25 0.33,18.62 C-0.61,21.7 4.21,23.02 5.15,19.95 C6.79,14.58 8.43,9.21 10.07,3.84 C11.02,0.75 6.19,-0.57 5.25,2.51 L5.25,2.51 Z" id="Path"></path>
            </g>
            <g id="Group" transform="translate(8.500000, 0.000000)">
                <path d="M7.74,2.84 L2.81,18.94" id="Path" fill="#393736"></path>
                <path d="M5.32,2.17 C3.68,7.54 2.04,12.91 0.4,18.28 C-0.54,21.36 4.28,22.68 5.22,19.61 C6.86,14.24 8.5,8.87 10.14,3.5 C11.09,0.42 6.26,-0.9 5.32,2.17 L5.32,2.17 Z" id="Path" fill="#D73C21"></path>
            </g>
            <g id="Group" transform="translate(14.500000, 4.000000)" fill="#D73C21">
                <path d="M7.87,2.98 L2.95,19.08" id="Path"></path>
                <path d="M5.46,2.31 C3.82,7.68 2.18,13.05 0.54,18.42 C-0.4,21.5 4.42,22.82 5.36,19.75 C7,14.38 8.64,9.01 10.28,3.64 C11.23,0.56 6.4,-0.76 5.46,2.31 L5.46,2.31 Z" id="Path"></path>
            </g>
        </g>
    </g>
</svg>